<svg height="512" viewBox="0 0 60 57" width="512" xmlns="http://www.w3.org/2000/svg"><g id="Page-1" fill="none" fill-rule="evenodd"><g id="039---Waking-Up" fill="rgb(0,0,0)" fill-rule="nonzero"><path id="Shape" d="m53 24h-21v-6.292l3.292-1.9c.008172-.0029044.0161834-.0062425.024-.01.006 0 .009-.009.014-.012l5.454-3.146c1.0879756-.6252744 1.7579549-1.7851474 1.756-3.04.0030648-.61263152-.1582018-1.21487767-.467-1.744-.973798-1.6656255-3.1067047-2.23731407-4.783-1.282l-4.531 2.615c-.4941655.28368497-1.0066266.53423635-1.534.75 1.4241653-2.52291533.8421848-5.70312562-1.3831518-7.55817972-2.2253366-1.85505409-5.4583598-1.85505409-7.6836964 0-2.2253366 1.8550541-2.8073171 5.03526439-1.3831518 7.55817972-.5273734-.21576365-1.0398345-.46631503-1.534-.75l-4.533-2.616c-1.674352-.95330587-3.8039797-.38380091-4.779 1.278-.3097703.53063428-.47171788 1.134571-.469 1.749-.00300095 1.2525155.6646644 2.4108195 1.75 3.036l5.46 3.15s.008.009.014.012c.0078166.0037575.015828.0070956.024.01l3.292 1.9v7.318c-.8603889-.6618067-1.9145307-1.0223232-3-1.026h-6c-1.08546927.0036768-2.13961114.3641933-3 1.026v-17.732c.64284305-.7896827.99576709-1.77575247 1-2.794 0-2.48528137-2.01471863-4.5-4.5-4.5s-4.5 2.01471863-4.5 4.5c.00423291 1.01824753.35715695 2.0043173 1 2.794v46.706c0 1.6568542 1.34314575 3 3 3h1c1.65685425 0 3-1.3431458 3-3v-2h44v2c0 1.6568542 1.3431458 3 3 3h1c1.6568542 0 3-1.3431458 3-3v-11.278c.6167513-.3544126.997855-1.0106732 1-1.722v-10c-.0044086-3.8641657-3.1358343-6.9955914-7-7zm5 17h-50v-8h22v2c0 1.6568542 1.3431458 3 3 3h25zm-25-5c-.5522847 0-1-.4477153-1-1v-9h5v10zm5.288-27.693c.3471733-.20166984.760704-.25574196 1.1480583-.15011695.3873544.10562502.716196.36212955.9129417.71211695.1289333.22177368.1949675.47450121.191.731.005625.5376405-.2817464 1.035751-.75 1.3l-4.6 2.655-1.49-2.601.061-.032zm-16.288-1.307c-.0002451-2.10270597 1.6275599-3.84662026 3.7253017-3.99102271 2.0977417-.14440244 3.9491523 1.36001276 4.2370326 3.44291876.2878802 2.08290601-1.0860657 4.03310055-3.1443343 4.46310395-.5448639.0320002-1.0911361.0320002-1.636 0-1.8523987-.3893463-3.1794768-2.02212784-3.182-3.915zm-10.54 2.6c-.0036152-.25829772.0630999-.51271376.193-.736.1974229-.34821459.5258353-.60307631.9121598-.70787411s.7985107-.0508374 1.1448402.14987411l4.531 2.616.061.032-1.49 2.605-4.612-2.659c-.4650293-.2662113-.7485175-.7642312-.74-1.3zm7.085 4.959 1.561-2.731c1.6129415.6458186 3.3217556 1.0198856 5.057 1.107.5546342.0866746 1.1193658.0866746 1.674 0 1.7352444-.0871144 3.4440585-.4611814 5.057-1.107l1.561 2.731-2.955 1.7c-.3093932.1786283-.4999909.5087435-.5.866v13.875h-8v-13.87c-.0000091-.3572565-.1906068-.6873717-.5-.866zm-7.545 11.441h6c1.6568542 0 3 1.3431458 3 3v2h-12v-2c0-1.6568542 1.34314575-3 3-3zm-6.5-24c1.00297802-.00338586 1.9103996.59438504 2.30320168 1.51725171s.19454934 1.99124854-.50320168 2.71174829c-.006.006-.01.014-.016.02-.4685874.48013798-1.11110013.75086918-1.782.75086918s-1.3134126-.2707312-1.782-.75086918c-.006-.006-.01-.014-.016-.02-.69723784-.71997814-.89575005-1.78739188-.50397337-2.70989943.39177667-.92250754 1.2977229-1.52087249 2.29997337-1.51910057zm1.5 52c0 .5522847-.44771525 1-1 1h-1c-.55228475 0-1-.4477153-1-1v-45.276c.48036415.17773424.9878328.27110847 1.5.276.5121672-.00489153 1.01963585-.09826576 1.5-.276zm2-11h21v7h-21zm23 7v-7h21v7zm26 4c0 .5522847-.4477153 1-1 1h-1c-.5522847 0-1-.4477153-1-1v-11h3zm1-18h-19v-10h14c2.7600532.0033061 4.9966939 2.2399468 5 5z"/><path id="Shape" d="m21 45h-5c-.5522847 0-1 .4477153-1 1s.4477153 1 1 1h5c.5522847 0 1-.4477153 1-1s-.4477153-1-1-1z"/><path id="Shape" d="m44 45h-5c-.5522847 0-1 .4477153-1 1s.4477153 1 1 1h5c.5522847 0 1-.4477153 1-1s-.4477153-1-1-1z"/></g></g></svg>