<svg height="512" viewBox="0 0 60 57" width="512" xmlns="http://www.w3.org/2000/svg"><g id="Page-1" fill="none" fill-rule="evenodd"><g id="039---Waking-Up" fill-rule="nonzero"><g id="Icons_copy" transform="translate(1 1)"><path id="Shape" d="m6 5.94v47.06c0 1.1045695-.8954305 2-2 2h-1c-1.1045695 0-2-.8954305-2-2v-47.06c.65554977.67698968 1.55763036 1.05917369 2.5 1.05917369s1.84445023-.38218401 2.5-1.05917369z" fill="#a0522d"/><path id="Shape" d="m7 3.5c-.01092634 1.92845265-1.57154735 3.48907366-3.5 3.5-1.92845265-.01092634-3.48907366-1.57154735-3.5-3.5.00000003-1.9329966 1.5670034-3.49999995 3.5-3.49999995s3.49999997 1.56700335 3.5 3.49999995z" fill="#ff9801"/><path id="Shape" d="m57 41v12c0 1.1045695-.8954305 2-2 2h-1c-1.1045695 0-2-.8954305-2-2v-12z" fill="#a0522d"/><path id="Shape" d="m20 28v3h-14v-3c0-2.209139 1.790861-4 4-4h6c2.209139 0 4 1.790861 4 4z" fill="#f5f5f5"/><path id="Shape" d="m16 24h-3c2.209139 0 4 1.790861 4 4v3h3v-3c0-2.209139-1.790861-4-4-4z" fill="#cfd8dc"/><circle id="Oval" cx="25" cy="6" fill="#ffe0b2" r="5"/><path id="Shape" d="m25 1c-.509822.00636665-1.0156711.09067483-1.5.25 2.0518727.67441794 3.4387505 2.59013402 3.4387505 4.75s-1.3868778 4.0755821-3.4387505 4.75c1.8848913.6190497 3.9574938.0651104 5.2822128-1.41176383 1.3247189-1.47687426 1.6509349-3.59727816.8313906-5.40403908-.8195443-1.80676093-2.6298019-2.95806329-4.6136034-2.93419709z" fill="#dfc49c"/><path id="Shape" d="m58 36v4c0 .5522847-.4477153 1-1 1h-51v-10h24v3c0 1.1045695.8954305 2 2 2z" fill="#02a9f4"/><path id="Shape" d="m29 36h3c-1.1045695 0-2-.8954305-2-2v-3h-3v3c0 1.1045695.8954305 2 2 2z" fill="#0377bc"/><path id="Shape" d="m55 36v4c0 .5522847-.4477153 1-1 1h3c.5522847 0 1-.4477153 1-1v-4z" fill="#0377bc"/><path id="Shape" d="m58 30v6h-21v-12h15c3.3137085 0 6 2.6862915 6 6z" fill="#f44335"/><path id="Shape" d="m52 24h-3c3.3137085 0 6 2.6862915 6 6v6h3v-6c0-3.3137085-2.6862915-6-6-6z" fill="#c81e1e"/><path id="Shape" d="m37 24v12h-5c-1.1045695 0-2-.8954305-2-2v-10z" fill="#f5f5f5"/><path id="Shape" d="m33.82 13.93-3.82 2.2v14.87h-10v-14.87l-3.82-2.2 2.5-4.37c3.9946361 1.9198378 8.6453639 1.9198378 12.64 0z" fill="#ef314c"/><path id="Shape" d="m31.32 9.56c-.798041.37367593-1.628045.6748871-2.48.9l2 3.47-3.84 2.2v14.87h3v-14.87l3.82-2.2z" fill="#bb193b"/><path id="Shape" d="m40.54 8.6c.0059556.89603779-.4719052 1.7256041-1.25 2.17l-5.47 3.16-2.5-4.37c.32-.16.63-.32.94-.5l4.53-2.62c1.1988974-.68697696 2.7275686-.27575546 3.42.92.2191145.37630019.3330883.8045652.33 1.24z" fill="#ffe0b2"/><path id="Shape" d="m18.68 9.56-2.5 4.37-5.47-3.16c-.7780948-.4443959-1.25595559-1.27396221-1.25-2.17-.00308826-.4354348.11088549-.86369981.33-1.24.6924314-1.19575546 2.2211026-1.60697696 3.42-.92l4.53 2.62c.31.18.62.34.94.5z" fill="#ffe0b2"/><path id="Rectangle-path" d="m6 41h23v9h-23z" fill="#ff9801"/><path id="Rectangle-path" d="m29 41h23v9h-23z" fill="#ff9801"/><path id="Rectangle-path" d="m49 41h3v9h-3z" fill="#f57c00"/></g><g id="Layer_2" fill="#000"><path id="Shape" d="m53 24h-21v-6.29l3.29-1.9 5.45-3.15c1.0786758-.615601 1.7489259-1.7580727 1.76-3 .0047207-.61197983-.1577932-1.21362704-.47-1.74-.9706263-1.66721404-3.1023748-2.24251856-4.78-1.29l-4.53 2.62c-.4958153.2779543-1.0065919.52833498-1.53.75 1.4186251-2.52309786.8336579-5.69932191-1.3907606-7.55147806-2.2244185-1.85215616-5.4540603-1.85215616-7.6784788 0-2.2244185 1.85215615-2.8093857 5.0283802-1.3907606 7.55147806-.5234081-.22166502-1.0341847-.4720457-1.53-.75l-4.49-2.68c-1.6757627-.94844273-3.802452-.3789527-4.78 1.28-.3107029.53065671-.47303438 1.13508242-.47 1.75.01103702 1.2393085.6766565 2.3803703 1.75 3l5.46 3.15 3.33 1.96v7.29c-.8627124-.6543771-1.9172039-1.0058742-3-1h-6c-1.08279614-.0058742-2.13728761.3456229-3 1v-17.71c.64449398-.78719685.99769506-1.77262787 1-2.79 0-2.48528137-2.01471863-4.5-4.5-4.5s-4.5 2.01471863-4.5 4.5c.00230494 1.01737213.35550602 2.00280315 1 2.79v46.71c0 1.6568542 1.34314575 3 3 3h1c1.65685425 0 3-1.3431458 3-3v-2h44v2c0 1.6568542 1.3431458 3 3 3h1c1.6568542 0 3-1.3431458 3-3v-11.28c.6150891-.3551046.9957131-1.0097779 1-1.72v-10c0-3.8659932-3.1340068-7-7-7zm5 17h-50v-8h22v2c0 1.6568542 1.3431458 3 3 3h25zm-25-5c-.5522847 0-1-.4477153-1-1v-9h5v10zm5.29-27.69c.3461908-.20430406.7602441-.26006141 1.148147-.15461208s.7167421.36315804.911853.71461208c.1303949.22076018.1962238.47368153.19.73.0089099.5384964-.2793612 1.0381663-.75 1.3l-4.6 2.66-1.49-2.56h.06zm-16.29-1.31c-.0026536-2.1030297 1.6236408-3.84896096 3.7215713-3.99534536 2.0979305-.14638441 3.9509323 1.35677681 4.2403629 3.43979647s-1.0835674 4.03442579-3.1419342 4.46554889c-.5459347.040006-1.0940653.040006-1.64 0-1.8510403-.3876956-3.177613-2.0187961-3.18-3.91zm-10.54 2.6c-.0049512-.25933329.0607263-.51512986.19-.74.198776-.34767612.528331-.60142618.9152652-.70473386.3869342-.10330767.7991133-.04759341 1.1447348.15473386l4.53 2.61h.06l-1.49 2.61-4.61-2.63c-.4651873-.2660537-.7487337-.7641758-.74-1.3zm7.08 5 1.57-2.73c1.6107353.6440141 3.3173361 1.0157489 5.05 1.1.5561189.0932402 1.1238811.0932402 1.68 0 1.7326639-.0842511 3.4392647-.4559859 5.05-1.1l1.57 2.73-3 1.7c-.3106342.179341-.501424.5113152-.5.87v13.83h-7.96v-13.87c.001424-.3586848-.1893658-.690659-.5-.87zm-7.54 11.4h6c1.6568542 0 3 1.3431458 3 3v2h-12v-2c0-1.6568542 1.34314575-3 3-3zm-6.5-24c1.00068155.00189707 1.90382441.60032417 2.29564715 1.5211076.39182273.92078342.19682753 1.98650331-.49564715 2.7088924-.46844467.47888937-1.11009297.74882224-1.78.74882224s-1.31155533-.26993287-1.78-.74882224c-.68771755-.71711677-.88549627-1.77342158-.50381007-2.69076967.38168621-.9173481 1.27038117-1.52159766 2.26381007-1.53923033zm1.5 52c0 .5522847-.44771525 1-1 1h-1c-.55228475 0-1-.4477153-1-1v-45.28c.47982122.18018088.98748853.27494545 1.5.28.51251147-.00505455 1.02017878-.09981912 1.5-.28zm2-11h21v7h-21zm23 7v-7h21v7zm26 4c0 .5522847-.4477153 1-1 1h-1c-.5522847 0-1-.4477153-1-1v-11h3zm1-18h-19v-10h14c2.7614237 0 5 2.2385763 5 5z"/><path id="Shape" d="m21 45h-5c-.5522847 0-1 .4477153-1 1s.4477153 1 1 1h5c.5522847 0 1-.4477153 1-1s-.4477153-1-1-1z"/><path id="Shape" d="m44 45h-5c-.5522847 0-1 .4477153-1 1s.4477153 1 1 1h5c.5522847 0 1-.4477153 1-1s-.4477153-1-1-1z"/></g></g></g></svg>