<svg height="512pt" viewBox="-17 0 512 512.00144" width="512pt" xmlns="http://www.w3.org/2000/svg"><path d="m385.429688 289.566406c-20.730469-46.164062-119.992188-79.703125-124.207032-81.109375-4.195312-1.394531-8.722656.871094-10.121094 5.0625l-8.003906 24.003907c-.835937 2.519531-.375 5.285156 1.238282 7.390624.773437 1.019532 19.308593 25.175782 42.785156 49.175782 31.226562 31.917968 55.246094 47.511718 73.242187 47.511718 6.816407 0 13.359375-2.453124 18.285157-7.210937 7-6.761719 10.703124-17.140625 10.785156-26.75.054687-6.242187-1.453125-12.398437-4.003906-18.074219zm0 0" fill="#ffdb7e"/><path d="m370.953125 325.597656c-17.992187 0-42.011719-15.59375-73.238281-47.511718-23.484375-24-42.015625-48.15625-42.789063-49.171876-1.613281-2.105468-2.074219-4.875-1.238281-7.390624l4.488281-13.453126c-3.152343.203126-6.011719 2.269532-7.074219 5.449219l-8 24.003907c-.839843 2.519531-.378906 5.285156 1.234376 7.390624.777343 1.019532 19.308593 25.175782 42.789062 49.175782 31.226562 31.917968 55.246094 47.511718 73.238281 47.511718 6.816407 0 13.359375-2.453124 18.285157-7.210937 4.011718-3.875 6.9375-8.941406 8.722656-14.367187-4.65625 3.683593-10.429688 5.574218-16.417969 5.574218zm0 0" fill="#ffd15e"/><path d="m146.257812 237.523438-8.003906-24.003907c-1.398437-4.191406-5.921875-6.460937-10.121094-5.0625-4.214843 1.40625-103.476562 34.945313-124.207031 81.105469-4.558593 10.15625-5.324219 21.441406-1.351562 31.914062 2.882812 7.59375 7.933593 14.566407 15.539062 17.917969 3.421875 1.507813 7.144531 2.207031 10.878907 2.207031 17.992187 0 42.015624-15.597656 73.238281-47.511718 23.484375-24.003906 42.015625-48.160156 42.789062-49.175782 1.613281-2.105468 2.074219-4.875 1.238281-7.390624zm0 0" fill="#ffdb7e"/><path d="m146.257812 237.523438-8.003906-24.003907c-.738281-2.214843-2.347656-3.878906-4.320312-4.765625l4.253906 12.769532c.839844 2.515624.378906 5.285156-1.234375 7.390624-.777344 1.015626-19.308594 25.171876-42.789063 49.171876-31.222656 31.917968-55.246093 47.515624-73.238281 47.515624-3.734375 0-7.457031-.699218-10.878906-2.207031-3.507813-1.546875-6.464844-3.867187-8.925781-6.660156.382812 1.59375.859375 3.175781 1.453125 4.742187 2.882812 7.59375 7.933593 14.566407 15.539062 17.917969 3.421875 1.507813 7.144531 2.207031 10.878907 2.207031 17.992187 0 42.015624-15.597656 73.238281-47.511718 23.484375-24 42.015625-48.15625 42.789062-49.175782 1.613281-2.105468 2.074219-4.875 1.238281-7.390624zm0 0" fill="#ffd15e"/><path d="m322.679688 391.328125c-20.511719-27.070313-41.445313-48.078125-42.324219-48.957031-2.265625-2.265625-5.660157-2.960938-8.632813-1.773438l-40.007812 16.003906c-3.808594 1.523438-5.851563 5.683594-4.722656 9.628907.355468 1.242187 8.863281 30.828125 23.015624 63.144531 19.574219 44.703125 39.84375 71.578125 60.238282 79.882812 10.691406 4.351563 22.429687 3.46875 32.433594-2.25 10.558593-6.03125 16.96875-15.40625 18.535156-27.105468 2.847656-21.269532-10.117188-51.070313-38.535156-88.574219zm0 0" fill="#ffdb7e"/><path d="m355.988281 487.058594c-10.003906 5.714844-21.742187 6.597656-32.4375 2.246094-20.394531-8.304688-40.660156-35.179688-60.234375-79.882813-10.515625-24.011719-17.910156-46.503906-21.167968-56.996094l-10.433594 4.175781c-3.808594 1.523438-5.851563 5.679688-4.722656 9.625.355468 1.246094 8.863281 30.828126 23.015624 63.148438 19.574219 44.699219 39.84375 71.578125 60.238282 79.878906 10.691406 4.355469 22.429687 3.472656 32.433594-2.246094 9.253906-5.285156 15.316406-13.136718 17.730468-22.871093-1.382812 1.042969-2.851562 2.023437-4.421875 2.921875zm0 0" fill="#ffd15e"/><path d="m148.527344 356.601562-40.007813-16.003906c-2.972656-1.1875-6.367187-.492187-8.632812 1.773438-.878907.878906-21.8125 21.886718-42.324219 48.957031-28.417969 37.507813-41.382812 67.308594-38.53125 88.578125 1.566406 11.699219 7.972656 21.070312 18.53125 27.105469 10.003906 5.714843 21.742188 6.601562 32.4375 2.246093 20.394531-8.304687 40.660156-35.179687 60.234375-79.882812 14.152344-32.316406 22.660156-61.902344 23.015625-63.144531 1.128906-3.945313-.910156-8.105469-4.722656-9.628907zm0 0" fill="#ffdb7e"/><path d="m148.527344 356.601562-7.132813-2.851562c-3.441406 10.976562-10.660156 32.625-20.753906 55.671875-19.574219 44.703125-39.839844 71.578125-60.234375 79.882813-10.691406 4.355468-22.429688 3.46875-32.433594-2.246094-3.410156-1.949219-6.375-4.246094-8.894531-6.855469 1.636719 11.558594 8.015625 20.828125 18.484375 26.808594 10.003906 5.714843 21.742188 6.601562 32.4375 2.246093 20.390625-8.304687 40.65625-35.179687 60.234375-79.882812 14.152344-32.316406 22.660156-61.902344 23.015625-63.144531 1.128906-3.945313-.910156-8.105469-4.722656-9.628907zm0 0" fill="#ffd15e"/><path d="m268.1875 213.234375c-19.726562-18.632813-39.773438-21.046875-40.617188-21.140625-.296874-.035156-.589843-.050781-.886718-.050781h-64.011719c-.296875 0-.589844.015625-.886719.050781-.84375.09375-20.894531 2.507812-40.617187 21.140625-25.558594 24.136719-38.515625 62.773437-38.515625 114.839844 0 38.238281 13.648437 66.730469 40.570312 84.675781 25.253906 16.835938 55.609375 19.347656 71.457032 19.347656 15.847656 0 46.199218-2.511718 71.453124-19.347656 26.921876-17.945312 40.570313-46.4375 40.570313-84.675781 0-52.066407-12.957031-90.703125-38.515625-114.839844zm0 0" fill="#ffedbf"/><path d="m215.984375 416.09375c-15.847656 0-46.203125-2.511719-71.453125-19.347656-26.921875-17.945313-40.574219-46.4375-40.574219-84.675782 0-50.367187 12.132813-88.167968 36.058594-112.433593-5.859375 3.113281-12.367187 7.476562-18.847656 13.597656-25.558594 24.136719-38.515625 62.773437-38.515625 114.839844 0 38.238281 13.648437 66.730469 40.570312 84.675781 25.253906 16.835938 55.609375 19.347656 71.457032 19.347656 15.847656 0 46.199218-2.511718 71.453124-19.347656 5.261719-3.507812 10.007813-7.425781 14.253907-11.730469-23.640625 13-50.007813 15.074219-64.402344 15.074219zm0 0" fill="#ffe49f"/><path d="m250.691406 320.074219h-112.027344c-4.417968 0-8 3.582031-8 8 0 35.296875 28.714844 64.015625 64.015626 64.015625 35.296874 0 64.011718-28.71875 64.011718-64.015625 0-4.417969-3.582031-8-8-8zm0 0" fill="#f7ad7d"/><path d="m207.984375 384.085938c-35.300781 0-64.015625-28.714844-64.015625-64.011719h-5.304688c-4.417968 0-8 3.582031-8 8 0 35.296875 28.714844 64.015625 64.015626 64.015625 14.804687 0 28.441406-5.066406 39.300781-13.539063-7.953125 3.546875-16.746094 5.535157-25.996094 5.535157zm0 0" fill="#f6a26d"/><path d="m248.203125 250.269531c-10.886719-17.617187-47.691406-23.4375-52.292969-24.101562-.011718 0-.019531-.003907-.03125-.003907-.019531-.003906-.050781-.007812-.070312-.011718-.128906-.019532-.257813-.011719-.390625-.027344-.246094-.019531-.496094-.050781-.746094-.050781-.203125 0-.402344.027343-.605469.042969-.175781.011718-.347656.011718-.523437.035156-4.207031.601562-41.433594 6.386718-52.390625 24.117187-3.480469 5.632813-4.199219 11.976563-2.078125 18.34375 2.886719 8.660157 8.867187 10.789063 12.175781 11.285157.753906.113281 1.519531.171874 2.296875.171874 8.332031 0 18.050781-6.570312 31.066406-20.886718.425781-.46875.84375-.9375 1.257813-1.402344-1.359375 9.1875-4.589844 20.035156-10.777344 23.125-3.953125 1.976562-5.554688 6.785156-3.578125 10.738281 1.402344 2.804688 4.230469 4.425781 7.164063 4.425781 1.203124 0 2.425781-.273437 3.574218-.847656 5.625-2.816406 9.703125-7.519531 12.65625-12.902344 4.367188 9.585938 11.039063 17.9375 21.242188 21.335938.839844.28125 1.691406.414062 2.53125.414062 3.351562 0 6.472656-2.121093 7.589844-5.472656 1.398437-4.191406-.867188-8.722656-5.058594-10.121094-9.375-3.125-14.25-16.863281-16.601563-29.4375.042969.050782.082031.097657.128907.144532 13.015624 14.320312 22.730468 20.886718 31.0625 20.886718.777343 0 1.546874-.058593 2.300781-.171874 3.308593-.496094 9.285156-2.625 12.175781-11.285157 2.121094-6.367187 1.402344-12.710937-2.078125-18.34375zm-74.800781-2.550781c-11.230469 12.492188-17.003906 15.4375-19.039063 16.128906-.035156-.089844-.070312-.1875-.105469-.296875-.621093-1.863281-.472656-3.273437.507813-4.863281 2.703125-4.382812 10.296875-8.289062 18.917969-11.277344-.09375.101563-.1875.207032-.28125.308594zm61.695312 15.832031c-.035156.109375-.070312.207031-.105468.296875-2.035157-.691406-7.808594-3.636718-19.039063-16.128906-.09375-.101562-.1875-.207031-.277344-.308594 8.621094 2.988282 16.210938 6.894532 18.914063 11.277344.980468 1.589844 1.128906 3 .507812 4.863281zm0 0" fill="#bba7da"/><path d="m258.691406 48.011719c-22.058594 0-40.007812 17.949219-40.007812 40.007812 0 22.0625 17.949218 40.007813 40.007812 40.007813 22.0625 0 40.011719-17.945313 40.011719-40.007813 0-22.058593-17.949219-40.007812-40.011719-40.007812zm0 0" fill="#ffdb7e"/><path d="m258.691406 66.714844c-11.746094 0-21.304687 9.554687-21.304687 21.304687s9.558593 21.308594 21.304687 21.308594c11.75 0 21.308594-9.558594 21.308594-21.308594s-9.558594-21.304687-21.308594-21.304687zm0 0" fill="#ffd15e"/><path d="m130.664062 48.011719c-22.0625 0-40.011718 17.949219-40.011718 40.007812 0 22.0625 17.949218 40.007813 40.011718 40.007813 22.058594 0 40.007813-17.945313 40.007813-40.007813 0-22.058593-17.949219-40.007812-40.007813-40.007812zm0 0" fill="#ffdb7e"/><path d="m130.664062 66.714844c-11.75 0-21.308593 9.554687-21.308593 21.304687s9.558593 21.308594 21.308593 21.308594c11.746094 0 21.304688-9.558594 21.304688-21.308594s-9.558594-21.304687-21.304688-21.304687zm0 0" fill="#ffd15e"/><path d="m194.679688 64.015625c-48.535157 0-88.023438 39.484375-88.023438 88.019531s39.488281 88.019532 88.023438 88.019532c48.53125 0 88.019531-39.484376 88.019531-88.019532s-39.488281-88.019531-88.019531-88.019531zm0 0" fill="#ffedbf"/><path d="m215.984375 224.050781c-48.535156 0-88.019531-39.484375-88.019531-88.019531 0-23.960938 9.628906-45.710938 25.210937-61.597656-27.664062 14.851562-46.519531 44.066406-46.519531 77.601562 0 48.535156 39.488281 88.019532 88.023438 88.019532 24.570312 0 46.820312-10.125 62.804687-26.421876-12.371094 6.644532-26.503906 10.417969-41.5 10.417969zm0 0" fill="#ffe49f"/><path d="m194.679688 160.035156c-30.886719 0-58.050782 15.910156-73.757813 39.980469 15.722656 24.085937 42.90625 40.039063 73.757813 40.039063 30.847656 0 58.035156-15.953126 73.757812-40.039063-15.710938-24.070313-42.875-39.980469-73.757812-39.980469zm0 0" fill="#ffdb7e"/><path d="m194.679688 176.039062c-4.421876 0-8.003907 3.582032-8.003907 8.003907v55.644531c2.636719.238281 5.304688.367188 8.003907.367188 2.695312 0 5.363281-.128907 8-.367188v-55.644531c0-4.421875-3.582032-8.003907-8-8.003907zm0 0" fill="#ffedbf"/><path d="m190.285156 239.933594c-1.207031-.0625-2.410156-.140625-3.605468-.246094 1.195312.105469 2.398437.1875 3.605468.246094zm0 0" fill="#ffdb7e"/><path d="m139.476562 179.511719c-7.203124 5.8125-13.480468 12.726562-18.554687 20.503906 14.34375 21.980469 38.242187 37.179687 65.753906 39.671875v-20.660156c-20.054687-7.101563-36.792969-21.277344-47.199219-39.515625zm0 0" fill="#ffd15e"/><g fill="#ffdb7e"><path d="m198.402344 239.96875c-1.234375.050781-2.476563.085938-3.722656.085938 1.246093 0 2.488281-.035157 3.722656-.085938zm0 0"/><path d="m202.675781 239.6875c-1.195312.105469-2.398437.1875-3.605469.246094 1.207032-.058594 2.410157-.140625 3.605469-.246094zm0 0"/><path d="m194.679688 240.054688c-1.25 0-2.492188-.035157-3.726563-.085938 1.234375.050781 2.476563.085938 3.726563.085938zm0 0"/></g><path d="m202.679688 223.046875v16.640625c21.371093-1.9375 40.554687-11.542969 54.78125-26.039062-12.367188 6.632812-26.488282 10.402343-41.476563 10.402343-4.523437 0-8.964844-.34375-13.304687-1.003906zm0 0" fill="#ffd15e"/><path d="m199.070312 239.933594c-.222656.011718-.445312.023437-.667968.035156.222656-.011719.445312-.023438.667968-.035156zm0 0" fill="#ffedbf"/><path d="m190.953125 239.96875c-.222656-.011719-.445313-.023438-.667969-.03125.222656.007812.445313.019531.667969.03125zm0 0" fill="#ffedbf"/><path d="m186.675781 219.027344v20.660156h.003907c1.195312.105469 2.398437.1875 3.605468.246094.222656.011718.445313.023437.667969.035156 1.234375.050781 2.476563.085938 3.722656.085938 1.25 0 2.492188-.035157 3.726563-.085938.222656-.011719.445312-.023438.664062-.035156 1.210938-.0625 2.414063-.140625 3.609375-.246094v-16.640625c-5.515625-.839844-10.863281-2.199219-16-4.019531zm0 0" fill="#ffe49f"/><path d="m210.679688 168.039062c0 8.839844-7.164063 16.003907-16 16.003907-8.839844 0-16.003907-7.164063-16.003907-16.003907 0-8.839843 7.164063-16.003906 16.003907-16.003906 8.835937 0 16 7.164063 16 16.003906zm0 0" fill="#f7ad7d"/><path d="m234.6875 144.03125h-16.003906c-4.417969 0-8.003906-3.582031-8.003906-8s3.585937-8.003906 8.003906-8.003906h16.003906c4.417969 0 8 3.585937 8 8.003906s-3.582031 8-8 8zm0 0" fill="#f7ad7d"/><path d="m170.671875 144.03125h-16.003906c-4.417969 0-8-3.582031-8-8s3.582031-8.003906 8-8.003906h16.003906c4.417969 0 8.003906 3.585937 8.003906 8.003906s-3.585937 8-8.003906 8zm0 0" fill="#f7ad7d"/><path d="m357.414062 120.027344h-32.007812c-6.566406 0-10.363281-7.855469-6.25-13l21.609375-27.007813h-15.359375c-4.417969 0-8.003906-3.585937-8.003906-8.003906s3.585937-8 8.003906-8h32.007812c6.566407 0 10.363282 7.855469 6.246094 13l-21.605468 27.007813h15.359374c4.417969 0 8 3.582031 8 8.003906 0 4.417968-3.582031 8-8 8zm0 0" fill="#ddd3ed"/><path d="m413.425781 88.019531h-32.007812c-6.566407 0-10.363281-7.855469-6.246094-13l21.605469-27.007812h-15.359375c-4.417969 0-8-3.582031-8-8.003907 0-4.417968 3.582031-8 8-8h32.007812c6.566407 0 10.363281 7.855469 6.25 13l-21.609375 27.007813h15.359375c4.417969 0 8 3.582031 8 8.003906 0 4.417969-3.582031 8-8 8zm0 0" fill="#ddd3ed"/><path d="m469.4375 56.011719h-32.007812c-6.5625 0-10.363282-7.855469-6.246094-13l21.605468-27.007813h-15.359374c-4.417969 0-8-3.582031-8-8.003906 0-4.417969 3.582031-8 8-8h32.007812c6.566406 0 10.363281 7.855469 6.25 13l-21.605469 27.007812h15.355469c4.421875 0 8.003906 3.585938 8.003906 8.003907s-3.582031 8-8.003906 8zm0 0" fill="#ddd3ed"/></svg>