<svg height="512" viewBox="0 0 64 64" width="512" xmlns="http://www.w3.org/2000/svg"><g id="Coffee_cup-hot_coffee-news_paper-Restaurant-Coffee_break-coffee_time" data-name="Coffee cup-hot coffee-news paper-Restaurant-Coffee break-coffee time"><path d="m11.36 26.232c-1.23 1.024-2.76 2.3-2.76 4.768h2c0-1.532.9-2.282 2.04-3.232 1.23-1.024 2.76-2.3 2.76-4.768h-2c0 1.532-.9 2.282-2.04 3.232z"/><path d="m18.36 26.232c-1.23 1.024-2.76 2.3-2.76 4.768h2c0-1.532.9-2.282 2.04-3.232 1.23-1.024 2.76-2.3 2.76-4.768h-2c0 1.532-.9 2.282-2.04 3.232z"/><path d="m25.36 26.232c-1.23 1.024-2.76 2.3-2.76 4.768h2c0-1.532.9-2.282 2.04-3.232 1.23-1.024 2.76-2.3 2.76-4.768h-2c0 1.532-.9 2.282-2.04 3.232z"/><path d="m61 17h-4v-6a1 1 0 0 0 -1-1h-4v-7a1 1 0 0 0 -1-1h-40a1 1 0 0 0 -1 1v21h2v-20h38v49a5.979 5.979 0 0 0 1.54 4h-19.54v-1a1 1 0 0 0 -1-1h-5.7a10.983 10.983 0 0 0 4.65-8h3.05a3.009 3.009 0 0 0 3-3v-5a3.009 3.009 0 0 0 -3-3h-3v-2a1 1 0 0 0 -1-1h-24a1 1 0 0 0 -1 1v12a10.976 10.976 0 0 0 4.7 9h-5.7a1 1 0 0 0 -1 1v3a3.009 3.009 0 0 0 3 3h24a3.009 3.009 0 0 0 3-3h24a6 6 0 0 0 6-6v-35a1 1 0 0 0 -1-1zm-31 21h3a1 1 0 0 1 1 1v5a1 1 0 0 1 -1 1h-3zm-24 8v-6h3v-2h-3v-3h22v3h-15v2h15v6a9.014 9.014 0 0 1 -9 9h-4a9.014 9.014 0 0 1 -9-9zm24 13a1 1 0 0 1 -1 1h-24a1 1 0 0 1 -1-1v-2h26zm30-6a4 4 0 0 1 -8 0v-41h3v40h2v-33h3z"/><path d="m47 7a1 1 0 0 0 -1-1h-30a1 1 0 0 0 -1 1v6a1 1 0 0 0 1 1h30a1 1 0 0 0 1-1zm-2 5h-28v-4h28z"/><path d="m15 17h14v2h-14z"/><path d="m33 17h14v2h-14z"/><path d="m33 22h14v2h-14z"/><path d="m33 27h14v2h-14z"/><path d="m33 32h14v2h-14z"/></g></svg>