<svg id="Capa_1" enable-background="new 0 0 512.008 512.008" height="512" viewBox="0 0 512.008 512.008" width="512" xmlns="http://www.w3.org/2000/svg"><g><path d="m492.127 113.264c-13.363-7.52-29.279-4.251-37.761 4.08-54.715 53.759-54.39 54.515-60.926 56.938-8.125 3.014-16.522 1.351-23.199-4.023-100.59-84.517-94.146-79.149-95.039-79.769-13.77-9.543-31.099-6.785-40.366 2.112-98.719 94.714-93.135 89.869-97.162 92.029-11.37 6.094-22.791 2.068-31.026-7.425-51.477-59.34-47.677-55.064-48.849-56.078-25.258-21.86-61.571 1.448-57.481 37.395 11.18 112.339 18.755 188.457 18.765 188.557 3.623 36.404 2.45 25.056 2.721 27.318 3.448 29.513 25.034 53.098 52.473 53.098h363.027c28.265 0 49.712-25.145 52.5-53.35l21.895-219.35c1.985-17.425-5.687-33.717-19.572-41.532zm-457.419 29.82c.797-.421 1.535-.671 2.823.229l46.455 53.551c23.185 26.726 58.116 26.459 79.807 5.474l91.046-87.353c1-.621 1.881-.647 2.875-.089 98.223 82.529 93.355 78.441 93.554 78.603 14.866 12.028 34.304 15.695 52.601 8.912 14.144-5.244 16.024-9.14 70.75-62.909 1.154-.748 1.859-.62 2.792-.095 2.658 1.496 5.191 5.903 4.474 12.044-.025.214.632-6.355-17.874 179.045h-416.431c-17.598-176.83-17.427-175.129-17.449-175.313-.781-6.685 2.31-10.898 4.577-12.099zm402.596 254.412h-363.028c-11.127 0-20.854-11.366-22.662-26.46l-1.049-10.54h410.451l-1.052 10.537c-1.806 15.095-11.532 26.463-22.66 26.463z"/></g></svg>