<svg id="Capa_1" enable-background="new 0 0 497 497" height="512" viewBox="0 0 497 497" width="512" xmlns="http://www.w3.org/2000/svg"><g><g><circle cx="76.898" cy="76.861" fill="#ac6757" r="76.861"/><path d="m76.898 108.797c-17.568 0-31.861-14.293-31.861-31.861 0-17.567 14.292-31.86 31.861-31.86s31.861 14.293 31.861 31.86c0 17.568-14.292 31.861-31.861 31.861z" fill="#ffb5c0"/></g><g><circle cx="420.102" cy="76.861" fill="#c77464" r="76.861"/><path d="m420.102 108.797c-17.568 0-31.861-14.293-31.861-31.861 0-17.567 14.292-31.86 31.861-31.86s31.861 14.293 31.861 31.86c0 17.568-14.293 31.861-31.861 31.861z" fill="#ffb5c0"/></g><g><path d="m455.521 264.059c0-80.078-45.462-149.53-111.98-183.977-28.473-14.745-60.8-23.082-95.078-23.082-114.356 0-207.059 92.703-207.059 207.059-14.569 0-25.997 12.667-24.318 27.138 13.391 115.409 111.138 205.084 229.974 205.786.468.003.934.017 1.403.017 119.47 0 217.934-89.939 231.377-205.803 1.679-14.472-9.75-27.138-24.319-27.138z" fill="#c77464"/><path d="m168.558 316.404c0-111.276 73.581-205.547 174.744-236.446-28.415-14.667-60.657-22.958-94.839-22.958-114.356 0-207.059 92.703-207.059 207.059-14.569 0-25.997 12.667-24.318 27.138 13.391 115.409 111.138 205.084 229.974 205.786-48.296-45.083-78.502-109.299-78.502-180.579z" fill="#ac6757"/></g><path d="m280.164 46.681-10.772 5.121-3.996-11.238c-5.226-14.696-26.01-14.696-31.236 0l-3.996 11.238-10.773-5.121c-14.087-6.696-28.784 8-22.088 22.088l5.121 10.773h94.708l5.121-10.772c6.695-14.089-8.001-28.785-22.089-22.089z" fill="#ac6757"/><g><g><ellipse cx="146.435" cy="271.325" fill="#ce857a" rx="23.515" ry="29.529" transform="matrix(.002 -1 1 .002 -125.211 417.165)"/></g><g><ellipse cx="351.491" cy="271.675" fill="#ce857a" rx="23.515" ry="29.529" transform="matrix(.002 -1 1 .002 79.047 622.57)"/></g></g><circle cx="248.558" cy="316.404" fill="#e8b5b1" r="80"/><g fill="#313d40"><path d="m165.927 234.31c-4.142 0-7.5 3.357-7.5 7.5v12c0 4.143 3.358 7.5 7.5 7.5s7.5-3.357 7.5-7.5v-12c0-4.143-3.357-7.5-7.5-7.5z"/><path d="m330.825 234.31c-4.142 0-7.5 3.357-7.5 7.5v12c0 4.143 3.358 7.5 7.5 7.5s7.5-3.357 7.5-7.5v-12c0-4.143-3.358-7.5-7.5-7.5z"/><path d="m288.558 295.117c-4.142 0-7.5 3.357-7.5 7.5 0 6.893-5.607 12.5-12.5 12.5s-12.5-5.607-12.5-12.5c0-4.143-3.358-7.5-7.5-7.5s-7.5 3.357-7.5 7.5c0 6.893-5.607 12.5-12.5 12.5s-12.5-5.607-12.5-12.5c0-4.143-3.358-7.5-7.5-7.5s-7.5 3.357-7.5 7.5c0 15.163 12.336 27.5 27.5 27.5 7.875 0 14.982-3.333 20-8.655 5.018 5.323 12.125 8.655 20 8.655 15.164 0 27.5-12.337 27.5-27.5 0-4.142-3.358-7.5-7.5-7.5z"/></g><path d="m266.236 270.798c-9.763-5.858-25.592-5.858-35.355 0-9.763 5.858-9.763 15.355 0 21.213l17.678 10.607 17.678-10.607c9.762-5.858 9.762-15.355-.001-21.213z" fill="#775257"/></g></svg>