<svg width="100" height="100" viewBox="0 0 100 100" fill="none" xmlns="http://www.w3.org/2000/svg">
<g clip-path="url(#clip0)">
<path d="M49.9999 17.3912C41.6087 17.3912 34.7824 24.2172 34.7824 32.6087C34.7824 41.0001 41.6085 47.8261 49.9999 47.8261C58.3913 47.8261 65.2173 40.9999 65.2173 32.6087C65.2173 24.2175 58.3913 17.3912 49.9999 17.3912ZM49.9999 43.4782C44.0087 43.4782 39.1304 38.5999 39.1304 32.6087C39.1304 26.6175 44.0087 21.7392 49.9999 21.7392C55.9911 21.7392 60.8694 26.6175 60.8694 32.6087C60.8694 38.5999 55.9913 43.4782 49.9999 43.4782Z" fill="#F9FCFF"/>
<path d="M80.4348 34.7827C74.4436 34.7827 69.5653 39.6609 69.5653 45.6521C69.5653 51.6434 74.4436 56.5216 80.4348 56.5216C86.426 56.5216 91.3043 51.6434 91.3043 45.6521C91.3043 39.6609 86.426 34.7827 80.4348 34.7827ZM80.4348 52.1739C76.8391 52.1739 73.9131 49.2479 73.9131 45.6521C73.9131 42.0564 76.8391 39.1304 80.4348 39.1304C84.0305 39.1304 86.9565 42.0564 86.9565 45.6521C86.9565 49.2479 84.0303 52.1739 80.4348 52.1739Z" fill="#F9FCFF"/>
<path d="M19.8739 34.7827C13.8782 34.7827 9.00446 39.6609 9.00446 45.6521C9.00446 51.6434 13.8827 56.5216 19.8739 56.5216C25.8652 56.5216 30.7434 51.6434 30.7434 45.6521C30.7434 39.6609 25.8695 34.7827 19.8739 34.7827ZM19.8739 52.1739C16.2782 52.1739 13.3522 49.2479 13.3522 45.6521C13.3522 42.0564 16.2782 39.1304 19.8739 39.1304C23.4697 39.1304 26.3957 42.0564 26.3957 45.6521C26.3957 49.2479 23.4695 52.1739 19.8739 52.1739Z" fill="#F9FCFF"/>
<path d="M49.9999 52.1739C34.4172 52.1739 21.739 64.8521 21.739 80.4348C21.739 81.6348 22.713 82.6088 23.913 82.6088C25.113 82.6088 26.0869 81.6348 26.0869 80.4348C26.0869 67.2479 36.813 56.5218 49.9999 56.5218C63.1868 56.5218 73.9129 67.2479 73.9129 80.4348C73.9129 81.6348 74.8868 82.6088 76.0868 82.6088C77.2868 82.6088 78.2608 81.6348 78.2608 80.4348C78.2608 64.8521 65.5826 52.1739 49.9999 52.1739Z" fill="#F9FCFF"/>
<path d="M80.4348 60.8696C76.8566 60.8696 73.3522 61.8478 70.3 63.6957C69.2784 64.3218 68.9478 65.6565 69.5696 66.6827C70.2 67.7088 71.5304 68.0349 72.5566 67.4131C74.926 65.9738 77.6478 65.2173 80.4348 65.2173C88.826 65.2173 95.6523 72.0433 95.6523 80.4348C95.6523 81.6348 96.6262 82.6087 97.8262 82.6087C99.0262 82.6087 100 81.6348 100 80.4348C100 69.6478 91.2218 60.8696 80.4348 60.8696Z" fill="#F9FCFF"/>
<path d="M29.6957 63.6912C26.6478 61.8478 23.1436 60.8696 19.5652 60.8696C8.77826 60.8696 0 69.6478 0 80.4348C0 81.6348 0.97398 82.6087 2.17398 82.6087C3.37398 82.6087 4.34796 81.6348 4.34796 80.4348C4.34776 72.0433 11.174 65.2173 19.5652 65.2173C22.3522 65.2173 25.0738 65.9738 27.4392 67.4086C28.4609 68.0304 29.8001 67.7043 30.4261 66.6782C31.0522 65.652 30.7217 64.3173 29.6957 63.6912Z" fill="#F9FCFF"/>
</g>
<defs>
<clipPath id="clip0">
<rect width="100" height="100" fill="white"/>
</clipPath>
</defs>
</svg>
