<svg width="84" height="84" viewBox="0 0 84 84" fill="none" xmlns="http://www.w3.org/2000/svg">
<path d="M77.8201 37.6248C76.3711 37.6248 75.1951 36.4488 75.1951 34.9998C75.1951 24.9478 71.2826 15.5013 64.1773 8.39282C63.1519 7.36743 63.1519 5.70502 64.1773 4.67963C65.2027 3.65424 66.8651 3.65424 67.8911 4.67963C75.9866 12.7783 80.4451 23.5481 80.4451 34.9998C80.4451 36.4488 79.2691 37.6248 77.8201 37.6248Z" fill="#F9FCFF"/>
<path d="M6.07031 37.6248C4.62131 37.6248 3.44531 36.4488 3.44531 34.9998C3.44531 23.5481 7.90448 12.7783 16.0031 4.6828C17.0285 3.65741 18.6916 3.65741 19.717 4.6828C20.7424 5.70819 20.7424 7.37125 19.717 8.39664C12.6085 15.5013 8.69531 24.9477 8.69531 34.9998C8.69531 36.4488 7.51932 37.6248 6.07031 37.6248Z" fill="#F9FCFF"/>
<path d="M41.9455 84C34.7075 84 28.8205 78.113 28.8205 70.875C28.8205 69.426 29.9965 68.25 31.4455 68.25C32.8945 68.25 34.0705 69.426 34.0705 70.875C34.0705 75.2188 37.6017 78.75 41.9455 78.75C46.2887 78.75 49.8205 75.2188 49.8205 70.875C49.8205 69.426 50.9965 68.25 52.4455 68.25C53.8945 68.25 55.0705 69.426 55.0705 70.875C55.0705 78.113 49.1835 84 41.9455 84Z" fill="#F9FCFF"/>
<path d="M70.8206 73.5H13.0706C9.69254 73.5 6.94513 70.7526 6.94513 67.3752C6.94513 65.5827 7.72571 63.8857 9.08755 62.7199C14.4106 58.2223 17.4451 51.6848 17.4451 44.7583V34.9998C17.4451 21.4903 28.4354 10.5 41.9456 10.5C55.4551 10.5 66.4453 21.4903 66.4453 34.9998V44.7583C66.4453 51.6848 69.4799 58.2223 74.7683 62.6956C76.1648 63.8857 76.9453 65.5827 76.9453 67.3752C76.9453 70.7526 74.1979 73.5 70.8206 73.5ZM41.9456 15.75C31.3296 15.75 22.6951 24.3844 22.6951 34.9998V44.7583C22.6951 53.2312 18.9819 61.2325 12.5104 66.7029C12.388 66.808 12.1951 67.0253 12.1951 67.3752C12.1951 67.8507 12.5944 68.25 13.0706 68.25H70.8206C71.2961 68.25 71.6953 67.8507 71.6953 67.3752C71.6953 67.0253 71.5031 66.808 71.3871 66.71C64.9085 61.2325 61.1953 53.2312 61.1953 44.7583V34.9998C61.1953 24.3844 52.5609 15.75 41.9456 15.75Z" fill="#F9FCFF"/>
<path d="M41.9455 15.75C40.4965 15.75 39.3205 14.574 39.3205 13.125V2.625C39.3205 1.17599 40.4965 0 41.9455 0C43.3945 0 44.5705 1.17599 44.5705 2.625V13.125C44.5705 14.574 43.3945 15.75 41.9455 15.75Z" fill="#F9FCFF"/>
</svg>
