<svg id="Capa_1" enable-background="new 0 0 512 512" height="512" viewBox="0 0 512 512" width="512" xmlns="http://www.w3.org/2000/svg"><g><g><path d="m502 436.46v65.54h-276c97.78-73.34 120-84.41 120-125.82 0-53.98-60-60.06-60-147.85v-2.33h65.46c15.17 83.99 150.54 65.3 150.54 210.46z" fill="#b3f1ff"/><path d="m502 226v210.46c0-145.16-135.37-126.47-150.54-210.46z" fill="#d8ec84"/><path d="m502 136v90c-35.875 0-303.375 0-342 0v-.79c133.51-8.83 200.25-89.21 342-89.21z" fill="#c1b0b5"/><circle cx="331" cy="55" fill="#ffda8f" r="45"/><path d="m286 228.33v-2.33h-276v276h216c97.78-73.34 120-84.41 120-125.82 0-53.98-60-60.06-60-147.85z" fill="#d8ec84"/><path d="m223 289c16.57 0 30 35.15 30 60s-13.43 30-30 30-30-5.15-30-30 13.43-60 30-60z" fill="#ffda8f"/><path d="m103 319c16.57 0 30 35.15 30 60s-13.43 30-30 30-30-5.15-30-30 13.43-60 30-60z" fill="#ffda8f"/><path d="m160 10c-17.92 0-34.01 18.59-45 42.22-11-23.63-27.08-42.22-45-42.22-33.14 0-60 63.58-60 105s26.86 45 60 45c17.92 0 34.01-1.05 45-8.56 10.99 7.51 27.08 8.56 45 8.56 33.14 0 60-3.58 60-45s-26.86-105-60-105z" fill="#d8ec84"/></g><g><path d="m223 419c5.523 0 10-4.477 10-10v-20.739c19.914-3.13 30-16.292 30-39.261 0-13.928-3.622-30.179-9.689-43.471-7.809-17.108-18.573-26.529-30.311-26.529s-22.502 9.421-30.311 26.529c-6.067 13.292-9.689 29.543-9.689 43.471 0 22.968 10.086 36.131 30 39.261v20.739c0 5.523 4.477 10 10 10zm-20-70c0-11.038 3.021-24.513 7.883-35.167 4.933-10.806 10.05-14.833 12.117-14.833s7.184 4.027 12.117 14.833c4.862 10.654 7.883 24.129 7.883 35.167 0 17.007-6.449 20-20 20s-20-2.993-20-20zm-100-40c-11.738 0-22.502 9.421-30.311 26.529-6.067 13.292-9.689 29.543-9.689 43.471 0 22.968 10.086 36.131 30 39.261v20.739c0 5.523 4.477 10 10 10s10-4.477 10-10v-20.739c19.914-3.13 30-16.292 30-39.261 0-13.928-3.622-30.179-9.689-43.471-7.809-17.108-18.573-26.529-30.311-26.529zm0 90c-13.551 0-20-2.993-20-20 0-11.038 3.021-24.513 7.883-35.167 4.933-10.806 10.05-14.833 12.117-14.833s7.184 4.027 12.117 14.833c4.862 10.654 7.883 24.129 7.883 35.167 0 17.007-6.449 20-20 20z"/><path d="m276 55c0 30.327 24.673 55 55 55s55-24.673 55-55-24.673-55-55-55-55 24.673-55 55zm90 0c0 19.299-15.701 35-35 35s-35-15.701-35-35 15.701-35 35-35 35 15.701 35 35z"/><circle cx="399" cy="502" r="10"/><path d="m10 512h344c5.523 0 10-4.477 10-10s-4.477-10-10-10h-97.875c2.367-1.759 4.67-3.47 6.899-5.125 70.331-52.24 92.976-68.089 92.976-110.695 0-27.235-13.612-44.232-26.777-60.67-15.39-19.217-31.267-39.059-33.051-79.51h47.366c9.658 33.951 38.16 51.923 65.803 69.333 40.638 25.594 82.659 52.059 82.659 131.127v55.54h-48c-5.523 0-10 4.477-10 10s4.477 10 10 10h58c5.523 0 10-4.477 10-10 0-9.253 0-335.395 0-366 0-5.523-4.477-10-10-10-76.994 0-132.835 23.266-186.837 45.767-45.782 19.075-89.18 37.151-145.163 42.591v-44.5c38.016-1.238 60-14.837 60-54.857 0-22.423-7.159-50.247-18.683-72.613-14.084-27.335-32.308-42.388-51.317-42.388-16.428 0-32.036 10.99-45.003 31.328-12.972-20.338-28.579-31.328-44.997-31.328-19.009 0-37.233 15.053-51.317 42.387-11.524 22.366-18.683 50.19-18.683 72.613 0 39.799 21.758 53.612 60 54.857v46.143h-50c-5.523 0-10 4.477-10 10v276c0 5.523 4.477 10 10 10zm409.999-223.591c-24.622-15.507-46.334-29.198-55.381-52.409h127.382v117.587c-17.534-29.928-43.453-47.198-72.001-65.178zm-97.145-98.181c52.064-21.692 101.37-42.237 169.146-44.092v69.864h-235.908c23.377-7.702 45.237-16.803 66.762-25.772zm-162.854-170.228c10.822 0 23.36 11.793 33.538 31.548 10 19.409 16.462 44.315 16.462 63.452 0 29.712-13.101 35-50 35-11.017 0-20.398-.453-27.906-2.171 5.293-8.406 7.906-19.267 7.906-32.829 0-19.118-5.183-42.184-13.971-62.603 10.174-20.096 22.979-32.397 33.971-32.397zm-140 95c0-19.137 6.462-44.043 16.462-63.452 10.178-19.755 22.716-31.548 33.538-31.548 11.702 0 25.471 13.963 35.934 36.44 8.676 18.655 14.066 41.094 14.066 58.56 0 18.739-6.075 25.061-10.642 28.184-8.278 5.657-21.721 6.816-39.358 6.816-36.899 0-50-5.288-50-35zm60 54.859c12.126-.401 24.625-1.872 35-6.91 10.374 5.038 22.873 6.509 35 6.91v45.857c-4.628.182-9.305.285-14 .285h-56zm-60 66.141h256.166c1.917 47.612 21.524 72.131 37.446 92.012 12.509 15.618 22.388 27.954 22.388 48.168 0 30.705-12.084 40.552-84.902 94.639-8.52 6.328-18.096 13.442-28.429 21.181h-202.669z"/></g></g></svg>