<svg width="38" height="29" viewBox="0 0 38 29" fill="none" xmlns="http://www.w3.org/2000/svg">
<path d="M36.5245 3.06988C35.5327 2.4677 34.3515 2.72947 33.722 3.39659C29.6612 7.70144 29.6853 7.76198 29.2002 7.956C28.5972 8.19736 27.974 8.06419 27.4784 7.63386C20.0129 0.866001 20.4911 1.29585 20.4249 1.24621C19.4029 0.482032 18.1168 0.702884 17.429 1.41533C10.1023 8.99973 10.5167 8.61175 10.2179 8.78472C9.37401 9.27271 8.52637 8.95032 7.91518 8.19015C4.09469 3.43839 4.37671 3.7808 4.28973 3.6996C2.41514 1.94912 -0.279922 3.81555 0.0236282 6.69407C0.853381 15.6898 1.41558 21.7851 1.41632 21.7931C1.68521 24.7082 1.59815 23.7995 1.61827 23.9807C1.87417 26.344 3.47623 28.2326 5.51269 28.2326H32.4557C34.5534 28.2326 36.1452 26.2191 36.3521 23.9605L37.9771 6.39563C38.1244 5.00029 37.555 3.69568 36.5245 3.06988ZM2.57597 5.45777C2.63512 5.42406 2.68989 5.40404 2.78549 5.47611L6.23327 9.7643C7.954 11.9044 10.5465 11.8831 12.1563 10.2026L18.9136 3.20769C18.9878 3.15796 19.0532 3.15588 19.1269 3.20056C26.4168 9.80922 26.0555 9.48187 26.0703 9.49484C27.1736 10.458 28.6162 10.7516 29.9742 10.2085C31.0239 9.78856 31.1635 9.47658 35.2251 5.17093C35.3107 5.11103 35.3631 5.12128 35.4323 5.16332C35.6296 5.28312 35.8176 5.63602 35.7644 6.12777C35.7625 6.14491 35.8113 5.61888 34.4378 20.4651H3.5313C2.22522 6.30514 2.23791 6.44135 2.23628 6.42662C2.17831 5.8913 2.40772 5.55394 2.57597 5.45777ZM32.4557 25.8303H5.51261C4.68679 25.8303 3.96488 24.9201 3.83069 23.7114L3.75284 22.8674H34.2155L34.1374 23.7112C34.0034 24.92 33.2816 25.8303 32.4557 25.8303Z" fill="#FAF3DD"/>
</svg>
