<svg width="173" height="173" viewBox="0 0 173 173" fill="none" xmlns="http://www.w3.org/2000/svg">
<g clip-path="url(#clip0)">
<path d="M135.438 139.573C161.41 112.471 160.494 69.4464 133.392 43.4748C106.29 17.5032 63.266 18.4195 37.2944 45.521C12.1015 71.8105 12.1015 113.283 37.2944 139.573L19.6352 163.114C17.5879 165.844 18.1411 169.717 20.8708 171.764C23.6006 173.811 27.4737 173.258 29.521 170.528L46.6364 147.704C70.3138 164.956 102.419 164.956 126.096 147.704L143.211 170.528C145.258 173.259 149.131 173.812 151.861 171.764C154.591 169.717 155.145 165.844 153.097 163.114L135.438 139.573ZM92.5455 92.6755C92.5455 94.0125 92.1118 95.3133 91.3099 96.3828L72.7735 121.098C70.7261 123.828 66.853 124.381 64.1233 122.334C61.3935 120.286 60.8399 116.413 62.8876 113.684L80.1884 90.618V55.6027C80.1884 52.1901 82.9547 49.4238 86.3673 49.4238C89.7799 49.4238 92.5462 52.1901 92.5462 55.6027L92.5455 92.6755Z" fill="#FFA69E"/>
<path d="M52.6006 9.04518C40.3847 -2.86663 20.8255 -2.62008 8.91335 9.59584C-2.78558 21.5935 -2.78703 40.7301 8.91045 52.7295C11.3234 55.1418 15.2346 55.1418 17.6472 52.7295L52.6006 17.7823C55.0129 15.3693 55.0129 11.4582 52.6006 9.04518Z" fill="#FFA69E"/>
<path d="M163.818 9.04515C151.753 -3.01546 132.197 -3.01546 120.134 9.04515C117.721 11.4581 117.721 15.3693 120.134 17.7819L155.081 52.7292C157.494 55.1414 161.405 55.1414 163.818 52.7292C175.878 40.6653 175.878 21.1094 163.818 9.04515Z" fill="#FFA69E"/>
</g>
<defs>
<clipPath id="clip0">
<rect width="173" height="173" fill="white"/>
</clipPath>
</defs>
</svg>
