<svg width="90" height="90" viewBox="0 0 90 90" fill="none" xmlns="http://www.w3.org/2000/svg">
<path d="M15.975 36.8888C14.2453 38.3288 12.0938 40.1231 12.0938 43.5938H14.9062C14.9062 41.4394 16.1719 40.3847 17.775 39.0487C19.5047 37.6087 21.6562 35.8144 21.6562 32.3438H18.8437C18.8437 34.4981 17.5781 35.5528 15.975 36.8888Z" fill="#F9FCFF"/>
<path d="M25.8187 36.8888C24.0891 38.3288 21.9375 40.1231 21.9375 43.5938H24.75C24.75 41.4394 26.0156 40.3847 27.6187 39.0487C29.3484 37.6087 31.5 35.8144 31.5 32.3438H28.6875C28.6875 34.4981 27.4219 35.5528 25.8187 36.8888Z" fill="#F9FCFF"/>
<path d="M35.6625 36.8888C33.9328 38.3288 31.7812 40.1231 31.7812 43.5938H34.5937C34.5937 41.4394 35.8594 40.3847 37.4625 39.0487C39.1922 37.6087 41.3437 35.8144 41.3437 32.3438H38.5312C38.5312 34.4981 37.2656 35.5528 35.6625 36.8888Z" fill="#F9FCFF"/>
<path d="M85.7812 23.9062H80.1562V15.4688C80.1562 15.0958 80.0081 14.7381 79.7444 14.4744C79.4806 14.2107 79.123 14.0625 78.75 14.0625H73.125V4.21875C73.125 3.84579 72.9768 3.4881 72.7131 3.22438C72.4494 2.96066 72.0917 2.8125 71.7188 2.8125H15.4688C15.0958 2.8125 14.7381 2.96066 14.4744 3.22438C14.2107 3.4881 14.0625 3.84579 14.0625 4.21875V33.75H16.875V5.625H70.3125V74.5312C70.3144 76.6095 71.0859 78.6133 72.4781 80.1562H45V78.75C45 78.377 44.8518 78.0194 44.5881 77.7556C44.3244 77.4919 43.9667 77.3438 43.5938 77.3438H35.5781C37.421 76.0573 38.9608 74.3841 40.0902 72.441C41.2197 70.4979 41.9114 68.3318 42.1172 66.0938H46.4062C47.5241 66.0904 48.5952 65.6449 49.3857 64.8544C50.1761 64.064 50.6217 62.9929 50.625 61.875V54.8438C50.6217 53.7259 50.1761 52.6548 49.3857 51.8643C48.5952 51.0739 47.5241 50.6283 46.4062 50.625H42.1875V47.8125C42.1875 47.4395 42.0393 47.0819 41.7756 46.8181C41.5119 46.5544 41.1542 46.4062 40.7812 46.4062H7.03125C6.65829 46.4062 6.3006 46.5544 6.03688 46.8181C5.77316 47.0819 5.625 47.4395 5.625 47.8125V64.6875C5.62606 67.1734 6.22754 69.6223 7.37827 71.8258C8.52901 74.0293 10.1949 75.9223 12.2344 77.3438H4.21875C3.84579 77.3438 3.4881 77.4919 3.22438 77.7556C2.96066 78.0194 2.8125 78.377 2.8125 78.75V82.9688C2.81584 84.0866 3.26138 85.1577 4.05183 85.9482C4.84228 86.7386 5.91339 87.1842 7.03125 87.1875H40.7812C41.8991 87.1842 42.9702 86.7386 43.7607 85.9482C44.5511 85.1577 44.9967 84.0866 45 82.9688H78.75C80.9878 82.9688 83.1339 82.0798 84.7162 80.4975C86.2986 78.9151 87.1875 76.769 87.1875 74.5312V25.3125C87.1875 24.9395 87.0393 24.5819 86.7756 24.3181C86.5119 24.0544 86.1542 23.9062 85.7812 23.9062ZM42.1875 53.4375H46.4062C46.7792 53.4375 47.1369 53.5857 47.4006 53.8494C47.6643 54.1131 47.8125 54.4708 47.8125 54.8438V61.875C47.8125 62.248 47.6643 62.6056 47.4006 62.8694C47.1369 63.1331 46.7792 63.2812 46.4062 63.2812H42.1875V53.4375ZM8.4375 64.6875V56.25H12.6562V53.4375H8.4375V49.2188H39.375V53.4375H18.2812V56.25H39.375V64.6875C39.3698 68.0425 38.0347 71.2587 35.6623 73.6311C33.2899 76.0034 30.0738 77.3385 26.7188 77.3438H21.0938C17.7387 77.3385 14.5226 76.0034 12.1502 73.6311C9.7778 71.2587 8.44271 68.0425 8.4375 64.6875ZM42.1875 82.9688C42.1875 83.3417 42.0393 83.6994 41.7756 83.9631C41.5119 84.2268 41.1542 84.375 40.7812 84.375H7.03125C6.65829 84.375 6.3006 84.2268 6.03688 83.9631C5.77316 83.6994 5.625 83.3417 5.625 82.9688V80.1562H42.1875V82.9688ZM84.375 74.5312C84.375 76.0231 83.7824 77.4538 82.7275 78.5087C81.6726 79.5636 80.2418 80.1562 78.75 80.1562C77.2582 80.1562 75.8274 79.5636 74.7725 78.5087C73.7176 77.4538 73.125 76.0231 73.125 74.5312V16.875H77.3438V73.125H80.1562V26.7188H84.375V74.5312Z" fill="#F9FCFF"/>
<path d="M66.0938 9.84375C66.0938 9.47079 65.9456 9.1131 65.6819 8.84938C65.4181 8.58566 65.0605 8.4375 64.6875 8.4375H22.5C22.127 8.4375 21.7694 8.58566 21.5056 8.84938C21.2419 9.1131 21.0938 9.47079 21.0938 9.84375V18.2812C21.0938 18.6542 21.2419 19.0119 21.5056 19.2756C21.7694 19.5393 22.127 19.6875 22.5 19.6875H64.6875C65.0605 19.6875 65.4181 19.5393 65.6819 19.2756C65.9456 19.0119 66.0938 18.6542 66.0938 18.2812V9.84375ZM63.2812 16.875H23.9062V11.25H63.2812V16.875Z" fill="#F9FCFF"/>
<path d="M21.0938 23.9062H40.7812V26.7188H21.0938V23.9062Z" fill="#F9FCFF"/>
<path d="M46.4062 23.9062H66.0938V26.7188H46.4062V23.9062Z" fill="#F9FCFF"/>
<path d="M46.4062 30.9375H66.0938V33.75H46.4062V30.9375Z" fill="#F9FCFF"/>
<path d="M46.4062 37.9688H66.0938V40.7812H46.4062V37.9688Z" fill="#F9FCFF"/>
<path d="M46.4062 45H66.0938V47.8125H46.4062V45Z" fill="#F9FCFF"/>
</svg>
